<svg id="Layer_35" enable-background="new 0 0 64 64" height="512" viewBox="0 0 64 64" width="512" xmlns="http://www.w3.org/2000/svg"><path d="m60.375 9.519c-.086-.229-.182-.458-.286-.685l1.351-2.365-3.908-3.908-2.365 1.351c-.227-.104-.455-.2-.685-.286l-.718-2.626h-5.527l-.718 2.625c-.229.086-.458.182-.685.286l-2.365-1.351-3.908 3.908 1.351 2.365c-.143.309-.269.622-.377.938l-.185.539c.853-.195 1.737-.31 2.65-.31.966 0 1.901.127 2.802.343l-.025-.02c.886-1.396 2.446-2.323 4.223-2.323 2.761 0 5 2.239 5 5 0 1.33-.519 2.539-1.366 3.434l-.021-.017c.743 1.409 1.223 2.978 1.351 4.648h-.053c1.066.139 2.057.514 2.916 1.077l2.612-2.612-1.351-2.365c.104-.227.2-.455.286-.685l2.626-.716v-5.527z" fill="#f0bc5e"/><path d="m30.835 41.976-.835 10.024 2 2 2-2-.835-10.024z" fill="#f0bc5e"/><path d="m56.865 20.229c-.177-1.291-.542-2.521-1.072-3.661.769-1.032 1.207-2.267 1.207-3.568 0-3.309-2.691-6-6-6-1.83 0-3.523.821-4.656 2.221-.762-.142-1.545-.221-2.344-.221-1.81 0-3.556.366-5.202 1.09-3.197-4.456-8.291-7.09-13.798-7.09-9.374 0-17 7.626-17 17 0 .023.002.046.002.069-3.941.494-7.002 3.858-7.002 7.931 0 4.411 3.589 8 8 8h.586l13.414 13.414v13.586h18v-13.586l13.414-13.414h.586c4.411 0 8-3.589 8-8 0-3.768-2.622-6.928-6.135-7.771zm-5.865-11.229c2.206 0 4 1.794 4 4 0 .559-.125 1.099-.344 1.599-1.502-2.148-3.628-3.821-6.104-4.758.691-.536 1.543-.841 2.448-.841zm-12 39.586v12.414h-14v-12.414l-14.465-14.465c-.34-.34-.535-.811-.535-1.293 0-1.008.82-1.828 1.828-1.828.481 0 .953.195 1.293.535l7.814 7.814c1.672 1.672 3.881 2.776 6.223 3.112l3.7.528 1.043.005c.033.001.066.006.099.006h1l3.842-.538c2.342-.336 4.551-1.44 6.223-3.112l7.814-7.814c.34-.341.811-.536 1.293-.536 1.008 0 1.828.82 1.828 1.828 0 .481-.195.953-.535 1.293zm-14.931-12.586c.193 1.541.82 2.948 1.763 4.089-1.304-.443-2.506-1.178-3.483-2.154l-1.935-1.935zm15.862 0h3.655l-1.936 1.936c-.977.976-2.179 1.71-3.483 2.154.944-1.142 1.57-2.549 1.764-4.09zm-7.931 5c-3.309 0-6-2.691-6-6s2.691-6 6-6 6 2.691 6 6-2.691 6-6 6zm23.818-7.062c.109-.357.182-.726.182-1.11 0-2.11-1.718-3.828-3.828-3.828-1.022 0-1.984.398-2.707 1.121l-3.879 3.879h-5.655c-.495-3.94-3.859-7-7.931-7s-7.436 3.06-7.931 7h-5.655l-3.879-3.879c-.723-.723-1.684-1.121-2.707-1.121-2.11 0-3.828 1.718-3.828 3.828 0 .383.073.752.182 1.109-2.922-.401-5.182-2.907-5.182-5.937 0-3.309 2.691-6 6-6 1.959 0 3.801.961 4.924 2.57l1.641-1.145c-1.305-1.868-3.335-3.079-5.562-3.361-.001-.021-.003-.042-.003-.064 0-8.271 6.729-15 15-15 5.118 0 9.834 2.581 12.614 6.904l.494.768.81-.422c1.589-.829 3.299-1.25 5.082-1.25 5.326 0 9.87 3.875 10.816 9.009-4.326.1-7.816 3.642-7.816 7.991h2c0-3.309 2.691-6 6-6s6 2.691 6 6c0 3.03-2.26 5.536-5.182 5.938z"/><path d="m41.293 21.707 1.293 1.293h-21.172l1.293-1.293-1.414-1.414-3.707 3.707 3.707 3.707 1.414-1.414-1.293-1.293h21.172l-1.293 1.293 1.414 1.414 3.707-3.707-3.707-3.707z"/><path d="m29.333 7.74c-.702-.249-1.432-.438-2.168-.561l-.33 1.973c.622.104 1.238.264 1.832.473z"/><path d="m25 7c-6.375 0-11.767 4.557-12.82 10.835l1.973.33c.89-5.311 5.452-9.165 10.847-9.165z"/></svg>